<?xml version="1.0" standalone="no"?>
<!DOCTYPE svg PUBLIC "-//W3C//DTD SVG 20010904//EN"
 "http://www.w3.org/TR/2001/REC-SVG-20010904/DTD/svg10.dtd">
<svg version="1.0" xmlns="http://www.w3.org/2000/svg"
 width="48.000000pt" height="48.000000pt" viewBox="0 0 48.000000 48.000000"
 preserveAspectRatio="xMidYMid meet">

<g transform="translate(0.000000,48.000000) scale(0.100000,-0.100000)"
fill="#000000" stroke="none">
<path d="M30 425 c0 -62 65 -141 145 -175 29 -12 65 -47 128 -124 90 -107 127
-132 127 -83 0 16 -56 78 -193 215 -106 105 -196 192 -200 192 -4 0 -7 -11 -7
-25z"/>
<path d="M332 397 c-29 -29 -52 -61 -52 -72 0 -10 -8 -27 -17 -37 -24 -27 -2
-49 25 -25 10 9 27 17 38 17 11 0 43 24 72 53 57 58 73 91 17 37 -45 -44 -59
-30 -15 15 42 44 28 46 -17 3 -43 -41 -56 -28 -15 15 18 18 32 36 32 40 0 17
-19 4 -68 -46z"/>
<path d="M104 137 c-65 -61 -86 -88 -81 -100 12 -33 43 -16 120 67 52 57 75
89 71 100 -3 9 -10 16 -14 16 -4 0 -47 -37 -96 -83z"/>
</g>
</svg>
